<svg xmlns="http://www.w3.org/2000/svg" width="155" height="123.3" viewBox="0 0 155 123.3"><g fill="#1EBEEB"><path d="M56.2 81.6h43.4v10.8H56.2z"/><path d="M2.4 53.8h7.4c-1.7 5.3-2.5 10.8-2.5 16.4V118c0 2.9 2.3 5.3 5.1 5.3h20.4v-6.6h89.9v6.6h20.4c2.8 0 5.1-2.4 5.1-5.3V70.2c0-5.6-.9-11.1-2.5-16.4h6.7c1.3 0 2.4-1.1 2.4-2.4v-9.1c0-1.3-1.1-2.4-2.4-2.4h-11.3L133 14c-2.7-8.4-10.5-14-19.3-14H42c-8.8 0-16.5 5.6-19.2 13.9l-8.4 25.9h-12c-1.3 0-2.4 1.1-2.4 2.4v9.1c0 1.4 1.1 2.5 2.4 2.5zM18.2 95V70.1c0-4.6.7-9.2 2.2-13.6l1-3h113.1l1 3c1.4 4.4 2.2 9 2.2 13.7V95c0 6-4.9 10.9-10.9 10.9H29.1c-6.1.1-10.9-4.8-10.9-10.9zm14.9-77.7c1.3-3.9 4.8-6.5 8.9-6.5h71.7c4.1 0 7.8 2.6 9.1 6.6l8.2 25.3H24.8l8.3-25.4z"/><circle cx="31.5" cy="69.7" r="8.4"/><circle cx="124.7" cy="69.7" r="8.4"/></g></svg>