<svg xmlns="http://www.w3.org/2000/svg" width="159.5" height="148.1" viewBox="0 0 159.5 148.1"><g fill="#1EBEEB"><path d="M147.9 84V73.9h11.6V55.5h-11.6V28.6c0-15.7-12.8-28.5-28.5-28.5H40.1C24.4 0 11.6 12.8 11.6 28.5v27H0v18.4h11.6v43.4c0 .4 0 .8.1 1.3v24.3c0 2.9 2.3 5.3 5.1 5.3h20.4v-2.5c1 .1 1.9.1 2.9.1h79.2c1 0 2-.1 3-.2v2.5h20.4c2.8 0 5.1-2.4 5.1-5.3v-24.4h-.1c0-.4.1-.8.1-1.2l.1-33.2zM22.4 33.9h52v48.6h-52V33.9zm62.7 0h52v48.6h-52V33.9zm-45-23.1h79.2c7.9 0 14.6 5.2 16.9 12.3h-113c2.3-7.1 9-12.3 16.9-12.3zm0 124.2c-9.8 0-17.7-8-17.7-17.7v-24h114.7v23.9c0 9.8-8 17.7-17.7 17.7l-79.3.1z"/><circle cx="41.1" cy="109.3" r="9.1"/><circle cx="118.3" cy="109.3" r="9.1"/><path d="M59.8 101.4h38.6v10.8H59.8zm8.1 15.8h22.4V128H67.9z"/></g></svg>