<svg version="1.1" id="Layer_1" xmlns="http://www.w3.org/2000/svg" xmlns:xlink="http://www.w3.org/1999/xlink" x="0px" y="0px"
	 width="159.5px" height="148.1px" viewBox="0 0 159.5 148.1" enable-background="new 0 0 159.5 148.1" xml:space="preserve">
<g>
	<path fill="#1EBEEB" d="M147.9,84V73.9h11.6V55.5h-11.6v-23v-3.9c0-15.7-12.8-28.5-28.5-28.5H40.1C24.4,0,11.6,12.8,11.6,28.5v3.9
		v23.1H0v18.4h11.6V84v33.3c0,0.4,0,0.8,0.1,1.3v24.3c0,2.9,2.3,5.3,5.1,5.3h20.4v-2.5c1,0.1,1.9,0.1,2.9,0.1h79.2c1,0,2-0.1,3-0.2
		v2.5h20.4c2.8,0,5.1-2.4,5.1-5.3v-24.4h-0.1c0-0.4,0.1-0.8,0.1-1.2L147.9,84L147.9,84z M22.4,33.9h52v48.6h-52
		C22.4,82.5,22.4,33.9,22.4,33.9z M85.1,33.9h52v48.6h-52C85.1,82.5,85.1,33.9,85.1,33.9z M40.1,10.8h79.2c7.9,0,14.6,5.2,16.9,12.3
		h-113C25.5,16,32.2,10.8,40.1,10.8z M40.1,135c-9.8,0-17.7-8-17.7-17.7v-24h114.7v23.9c0,9.8-8,17.7-17.7,17.7L40.1,135L40.1,135z"
		/>
	<circle fill="#1EBEEB" cx="41.1" cy="109.3" r="9.1"/>
	<circle fill="#1EBEEB" cx="118.3" cy="109.3" r="9.1"/>
	<rect x="59.8" y="101.4" fill="#1EBEEB" width="38.6" height="10.8"/>
	<rect x="67.9" y="117.2" fill="#1EBEEB" width="22.4" height="10.8"/>
</g>
</svg>
