<svg xmlns="http://www.w3.org/2000/svg" width="128.7" height="155.9" viewBox="0 0 128.7 155.9"><g fill="#1EBEEB"><path d="M100.2 10.6H69.7V0H58.9v10.6H28.5C12.8 10.6 0 23.4 0 39.1V113c0 13.2 9 24.2 21.1 27.5L8 155.9h13.3l12.2-14.3h65.6l12.2 14.3h13.3l-14-16.4c10.5-4.2 18-14.5 18-26.5V39.1c.1-15.7-12.7-28.5-28.4-28.5zM10.8 45.3h107.1V80H10.8V45.3zm17.7-23.9h71.6c8.2 0 15 5.6 17.1 13.1H11.4c2.1-7.5 9-13.1 17.1-13.1zm71.7 109.3H28.5c-9.8 0-17.7-8-17.7-17.7V90.8h107.1V113c0 9.8-8 17.7-17.7 17.7z"/><circle cx="63.9" cy="110.9" r="11.7"/></g></svg>