<svg xmlns="http://www.w3.org/2000/svg" width="136.3" height="154.3" viewBox="0 0 136.3 154.3"><g fill="#1EBEEB"><path d="M107.8 0H28.5C12.8 0 0 12.8 0 28.5v81.6c0 13.5 9.5 24.9 22.1 27.8l-14 16.4h14.2l13.3-15.6h69.2l13.3 15.6h14.2l-14.9-17.4c10.9-4 18.7-14.5 18.7-26.8V28.5C136.3 12.8 123.5 0 107.8 0zM28.5 10.8h79.2c7.4 0 13.8 4.6 16.4 11.1h-112c2.6-6.5 9-11.1 16.4-11.1zM10.8 32.7h53.5v45.5H10.8V32.7zm114.7 77.4c0 9.8-8 17.7-17.7 17.7H28.5c-9.8 0-17.7-8-17.7-17.7V89h114.7v21.1zm0-31.9H75.1V32.7h50.4v45.5z"/><circle cx="35.4" cy="106.4" r="9.1"/><circle cx="103.3" cy="106.4" r="9.1"/></g></svg>