<svg version="1.1" id="Layer_1" xmlns="http://www.w3.org/2000/svg" xmlns:xlink="http://www.w3.org/1999/xlink" x="0px" y="0px"
	 width="283.6px" height="136.7px" viewBox="0 0 283.6 136.7" enable-background="new 0 0 283.6 136.7" xml:space="preserve">
<g>
	<path fill="#1EBEEB" d="M278.2,68.5H198C195.2,54,186.8,41.4,175.2,33H197c3,0,5.4-2.4,5.4-5.4s-2.4-5.4-5.4-5.4h-49.8V5.4
		c0-3-2.4-5.4-5.4-5.4s-5.4,2.4-5.4,5.4v16.8H86.6c-3,0-5.4,2.4-5.4,5.4s2.4,5.4,5.4,5.4h21.8c-11.6,8.4-19.9,21-22.8,35.5H5.4
		c-3,0-5.4,2.4-5.4,5.4s2.4,5.4,5.4,5.4h35c-1.1,2.4-1.8,5.1-1.8,7.9c0,10.3,8.4,18.7,18.7,18.7S76,97.5,76,87.2
		c0-2.8-0.7-5.5-1.8-7.9h10.3c0,0.1,0,0.1,0,0.2c0,31.6,25.7,57.2,57.2,57.2c31.6,0,57.2-25.7,57.2-57.2c0-0.1,0-0.1,0-0.2h10.3
		c-1.1,2.4-1.8,5.1-1.8,7.9c0,10.3,8.4,18.7,18.7,18.7S245,97.6,245,87.2c0-2.8-0.7-5.5-1.8-7.9h35c3,0,5.4-2.4,5.4-5.4
		C283.6,70.9,281.2,68.5,278.2,68.5z M65.3,87.2c0,4.4-3.6,7.9-7.9,7.9s-7.9-3.6-7.9-7.9s3.6-7.9,7.9-7.9S65.3,82.9,65.3,87.2z
		 M141.8,33c22.7,0,41.6,16.3,45.6,37.8l-37.2,17.3c-5.3,2.5-11.5,2.5-16.8,0L96.2,70.8C100.2,49.3,119.1,33,141.8,33z M141.8,125.9
		c-24.6,0-44.8-19.3-46.3-43.5l33.4,15.5c4.1,1.9,8.5,2.9,12.9,2.9s8.8-1,12.9-2.9l33.4-15.5C186.6,106.7,166.4,125.9,141.8,125.9z
		 M234.2,87.2c0,4.4-3.6,7.9-7.9,7.9s-7.9-3.6-7.9-7.9s3.6-7.9,7.9-7.9S234.2,82.9,234.2,87.2z"/>
	<path fill="#1EBEEB" d="M122.1,72.7h39.5c6.4,0,11.6-5.2,11.6-11.6v-2.8c0-6.4-5.2-11.6-11.6-11.6h-39.5c-6.4,0-11.6,5.2-11.6,11.6
		v2.8C110.5,67.5,115.7,72.7,122.1,72.7z M119.7,58.3c0-1.3,1-2.3,2.3-2.3h39.5c1.3,0,2.3,1,2.3,2.3v2.8c0,1.3-1,2.3-2.3,2.3H122
		c-1.3,0-2.3-1-2.3-2.3V58.3z"/>
</g>
</svg>
