<svg version="1.1" id="Layer_1" xmlns="http://www.w3.org/2000/svg" xmlns:xlink="http://www.w3.org/1999/xlink" x="0px" y="0px"
	 width="155px" height="136.4px" viewBox="0 0 155 136.4" enable-background="new 0 0 155 136.4" xml:space="preserve">
<g>
	<rect x="56.2" y="94.7" fill="#1EBEEB" width="43.4" height="10.8"/>
	<path fill="#1EBEEB" d="M2.4,66.9h7.4c-1.7,5.3-2.5,10.8-2.5,16.4v23.5l0,0v24.4c0,2.9,2.3,5.3,5.1,5.3h20.4v-6.6h89.9v6.6h20.4
		c2.8,0,5.1-2.4,5.1-5.3v-24.4l0,0V83.3c0-5.6-0.9-11.1-2.5-16.4h6.7c1.3,0,2.4-1.1,2.4-2.4v-9.1c0-1.3-1.1-2.4-2.4-2.4h-11.3
		L133,27.1c-2.7-8.4-10.5-14-19.3-14h-9.8L96.5,0H59.3l-7.4,13.1H42c-8.8,0-16.5,5.6-19.2,13.9l-8.4,25.9h-12C1.1,52.9,0,54,0,55.3
		v9.1C0,65.8,1.1,66.9,2.4,66.9z M18.2,108.1V83.2c0-4.6,0.7-9.2,2.2-13.6l1-3h113.1l1,3c1.4,4.4,2.2,9,2.2,13.7v24.9
		c0,6-4.9,10.9-10.9,10.9H29.1C23,119,18.2,114.1,18.2,108.1z M33.1,30.3c1.3-3.9,4.8-6.5,8.9-6.5h71.7c4.1,0,7.8,2.6,9.1,6.6
		l8.2,25.3H24.8L33.1,30.3z"/>
	<circle fill="#1EBEEB" cx="31.5" cy="82.8" r="8.4"/>
	<circle fill="#1EBEEB" cx="124.7" cy="82.8" r="8.4"/>
</g>
</svg>
