<svg version="1.1" id="Layer_1" xmlns="http://www.w3.org/2000/svg" xmlns:xlink="http://www.w3.org/1999/xlink" x="0px" y="0px"
	 width="136.3px" height="154.3px" viewBox="0 0 136.3 154.3" enable-background="new 0 0 136.3 154.3" xml:space="preserve">
<g>
	<path fill="#1EBEEB" d="M107.8,0H28.5C12.8,0,0,12.8,0,28.5v2.7v48.4v30.5c0,13.5,9.5,24.9,22.1,27.8l-14,16.4h14.2l13.3-15.6h69.2
		l13.3,15.6h14.2l-14.9-17.4c10.9-4,18.7-14.5,18.7-26.8V79.6V31.2v-2.7C136.3,12.8,123.5,0,107.8,0z M28.5,10.8h79.2
		c7.4,0,13.8,4.6,16.4,11.1h-112C14.7,15.4,21.1,10.8,28.5,10.8z M10.8,32.7h53.5v45.5H10.8V32.7z M125.5,110.1
		c0,9.8-8,17.7-17.7,17.7H28.5c-9.8,0-17.7-8-17.7-17.7V89h114.7V110.1z M125.5,78.2H75.1V32.7h50.4V78.2z"/>
	<circle fill="#1EBEEB" cx="35.4" cy="106.4" r="9.1"/>
	<circle fill="#1EBEEB" cx="103.3" cy="106.4" r="9.1"/>
</g>
</svg>
