<svg version="1.1" id="Layer_1" xmlns="http://www.w3.org/2000/svg" xmlns:xlink="http://www.w3.org/1999/xlink" x="0px" y="0px"
	 width="128.7px" height="155.9px" viewBox="0 0 128.7 155.9" enable-background="new 0 0 128.7 155.9" xml:space="preserve">
<g>
	<path fill="#1EBEEB" d="M100.2,10.6H69.7V0H58.9v10.6H28.5C12.8,10.6,0,23.4,0,39.1v4.7v37.6V113c0,13.2,9,24.2,21.1,27.5L8,155.9
		h13.3l12.2-14.3h65.6l12.2,14.3h13.3l-14-16.4c10.5-4.2,18-14.5,18-26.5V81.4V43.8v-4.7C128.7,23.4,115.9,10.6,100.2,10.6z
		 M10.8,45.3h107.1V80H10.8V45.3z M28.5,21.4h71.6c8.2,0,15,5.6,17.1,13.1H11.4C13.5,27,20.4,21.4,28.5,21.4z M100.2,130.7H28.5
		c-9.8,0-17.7-8-17.7-17.7V90.8h107.1V113C117.9,122.8,109.9,130.7,100.2,130.7z"/>
	<circle fill="#1EBEEB" cx="63.9" cy="110.9" r="11.7"/>
</g>
</svg>
